<svg width="78" height="50" viewBox="0 0 78 50" fill="none" xmlns="http://www.w3.org/2000/svg">
<path fill-rule="evenodd" clip-rule="evenodd" d="M19.411 0L19.5011 7.98478e-05V0.000113085L19.5913 3.31371e-05C28.3048 3.31371e-05 34.4669 2.23331 34.4669 7.21243C34.4669 9.29939 33.7011 11.5375 32.0371 13.4334C35.7761 16.741 37.7124 21.6927 37.7124 27.2268C37.7124 37.1851 29.6397 43.4547 19.6814 43.4547C19.6212 43.4547 19.5611 43.4545 19.5011 43.454V43.454C19.4411 43.4545 19.381 43.4547 19.3209 43.4547C9.36261 43.4547 1.28986 37.185 1.28986 27.2268C1.28986 21.6927 3.22615 16.7409 6.96521 13.4334C5.3012 11.5375 4.53541 9.29935 4.53541 7.2124C4.53541 2.23328 10.6975 0 19.411 0ZM19.5011 13.064C19.5311 13.0642 19.5611 13.0643 19.5913 13.0643C24.3715 13.0643 26.3529 10.41 26.3529 8.14674C26.3529 5.8835 23.552 4.86837 19.5913 4.86837L19.5011 4.86855V4.86852L19.411 4.86834C15.4503 4.86834 12.6494 5.88347 12.6494 8.1467C12.6494 10.4099 14.6307 13.0642 19.411 13.0642C19.4411 13.0642 19.4712 13.0641 19.5011 13.0639V13.064Z" fill="#3B8DBF"/>
<path fill-rule="evenodd" clip-rule="evenodd" d="M19.5012 39.9779L31.9285 33.9413L34.6726 36.6854C31.4375 40.9857 25.9307 43.4547 19.6815 43.4547C19.6213 43.4547 19.5612 43.4545 19.5012 43.4541V39.9779ZM19.5012 39.9779V43.454C19.4411 43.4545 19.381 43.4547 19.3208 43.4547C18.6232 43.4547 17.9348 43.4239 17.2578 43.3633L15.7994 41.7761L19.5012 39.9779Z" fill="black" fill-opacity="0.2"/>
<path d="M11.0929 31.4302L11.2487 26.8345H9.50905C9.37057 26.8345 9.30133 26.7825 9.30133 26.6787C9.30133 26.3671 9.44846 26.0122 9.74273 25.6141C10.037 25.1987 10.3572 24.991 10.7034 24.991H11.2487C11.2141 23.6408 11.1794 22.6715 11.1448 22.0829C11.0756 21.027 10.9025 20.2135 10.6255 19.6423L10.4957 19.3826C10.4265 19.2961 10.3918 19.1922 10.3918 19.071C10.3918 18.9499 10.487 18.846 10.6775 18.7595C10.8679 18.6729 11.1448 18.5691 11.5083 18.4479C11.8891 18.3267 12.6854 18.1709 13.8971 17.9805C15.1088 17.7728 16.4243 17.6689 17.8437 17.6689C19.2804 17.6689 20.0593 17.7728 20.1805 17.9805C20.319 18.1882 20.3882 18.5171 20.3882 18.9672C20.3882 19.3999 20.3276 19.6163 20.2065 19.6163C20.1892 19.6163 20.1286 19.6076 20.0247 19.5903C19.7478 19.5211 19.3237 19.4865 18.7525 19.4865C18.1812 19.4865 17.5667 19.5384 16.909 19.6423C16.2512 19.7461 15.7492 19.85 15.403 19.9538L14.9097 20.1356C14.7712 20.1702 14.6674 20.2914 14.5981 20.4991C14.4596 21.5204 14.3904 23.0177 14.3904 24.991H18.5967C18.7525 24.991 18.8304 25.0429 18.8304 25.1468C18.8304 25.4583 18.6919 25.8218 18.4149 26.2373C18.138 26.6527 17.8264 26.8604 17.4802 26.8604L14.3904 26.8345L14.5722 34.6239C14.5722 35.0047 14.5116 35.2816 14.3904 35.4547C14.0615 35.8875 13.4989 36.2077 12.7027 36.4154C11.9238 36.6404 11.2746 36.7529 10.7553 36.7529C10.6169 36.7529 10.5476 36.6664 10.5476 36.4933C10.5476 36.4068 10.5563 36.3375 10.5736 36.2856C10.7813 35.9913 10.9544 34.3729 11.0929 31.4302Z" fill="white"/>
<path d="M22.7431 22.2128L22.1199 22.1868C21.6526 22.1868 21.3497 22.2993 21.2112 22.5243C21.1766 22.5763 21.1333 22.6022 21.0814 22.6022C20.8563 22.6022 20.7438 22.2214 20.7438 21.4598C20.7438 20.6808 20.8563 20.1875 21.0814 19.9798C21.3237 19.7721 21.7305 19.6682 22.3017 19.6682C22.8902 19.6682 23.2884 19.7721 23.4961 19.9798C23.7038 20.1702 23.8076 20.4991 23.8076 20.9665C23.8076 21.4338 23.7298 21.7627 23.574 21.9531C23.4182 22.1262 23.1412 22.2128 22.7431 22.2128ZM20.6659 35.3249L20.9515 29.2751C20.9515 27.8384 20.7871 26.8604 20.4582 26.3411C20.3544 26.168 20.2332 26.0382 20.0947 25.9517C19.9908 25.917 19.9389 25.8478 19.9389 25.7439C19.9389 25.4324 20.3803 25.1294 21.2631 24.8352C22.1459 24.5409 22.7864 24.3938 23.1845 24.3938C23.5999 24.3938 23.8163 24.4976 23.8336 24.7054C23.8336 25.0516 23.7817 26.0382 23.6778 27.6653C23.5913 29.2751 23.548 30.9715 23.548 32.7544C23.548 34.5373 23.6519 35.6451 23.8596 36.0779C23.9115 36.1644 23.9375 36.251 23.9375 36.3375C23.9375 36.5625 23.6086 36.6751 22.9508 36.6751C22.293 36.6751 21.618 36.502 20.9256 36.1558C20.7525 36.0692 20.6659 35.7923 20.6659 35.3249Z" fill="white"/>
<path d="M25.3111 25.9776L25.389 24.939C25.4063 24.7833 25.5275 24.7054 25.7525 24.7054H26.6613L26.5574 22.6282V22.5243C26.5574 22.1262 26.8604 21.7454 27.4662 21.3819C28.072 21.0184 28.626 20.8366 29.1279 20.8366C29.2837 20.8366 29.3616 20.9059 29.3616 21.0443V21.0703C29.2924 21.5377 29.2231 22.7407 29.1539 24.6794C29.9155 24.6794 30.4002 24.6621 30.6079 24.6275C30.8156 24.5928 30.9282 24.5755 30.9455 24.5755C31.0666 24.5755 31.1272 24.6794 31.1272 24.8871C31.1272 25.0948 31.032 25.3631 30.8416 25.692C30.6512 26.0036 30.4435 26.168 30.2185 26.1853H29.1279C29.1106 26.7739 29.102 27.7692 29.102 29.1713C29.102 30.5561 29.1106 31.6985 29.1279 32.5986C29.1626 33.4987 29.1972 34.1825 29.2318 34.6498C29.2664 35.0999 29.301 35.4634 29.3357 35.7403C29.3876 36.0173 29.4222 36.2163 29.4395 36.3375C29.4741 36.4587 29.4914 36.5366 29.4914 36.5712C29.4914 36.7443 29.3789 36.8395 29.1539 36.8568C28.4788 36.8568 27.8037 36.7616 27.1287 36.5712C26.4709 36.3808 26.142 36.0519 26.142 35.5845C26.5055 32.6765 26.6873 29.5521 26.6873 26.2113C26.2199 26.2113 25.8651 26.2286 25.6227 26.2632H25.5968C25.441 26.2632 25.3458 26.168 25.3111 25.9776Z" fill="white"/>
<path d="M24.6542 34.0988L27.0626 31.7941L29.4531 36.0351L25.5486 36.4796L24.6542 34.0988Z" fill="black" fill-opacity="0.1"/>
<path d="M50.4236 29.1973L50.3976 26.1075C50.3976 23.0437 50.2938 21.0098 50.0861 20.0058C50.0514 19.8846 50.0341 19.7894 50.0341 19.7202C50.0341 19.4259 50.3284 19.1749 50.9169 18.9672C51.5055 18.7595 51.9728 18.6556 52.319 18.6556C52.6652 18.6556 52.8383 18.7595 52.8383 18.9672C52.8383 18.9845 52.821 19.0797 52.7864 19.2528C52.3883 21.3819 52.1892 24.766 52.1892 29.405C52.1892 32.5727 52.371 34.8489 52.7345 36.2337C52.8037 36.4587 52.8383 36.5799 52.8383 36.5972C52.8383 36.9607 52.4402 37.255 51.6439 37.48C50.8477 37.7223 50.2851 37.8435 49.9562 37.8435C49.4369 37.8435 49.0821 37.7223 48.8917 37.48C48.5109 36.9953 47.8877 35.6365 47.0222 33.4036C46.1741 31.1533 45.4297 29.0588 44.7893 27.1201L43.8026 24.2121C43.768 24.1255 43.7247 24.0822 43.6728 24.0822C43.6036 24.0822 43.5257 24.1428 43.4391 24.264C43.3526 25.8738 43.3093 27.4836 43.3093 29.0934C43.3093 30.7032 43.3179 31.9409 43.3353 32.8064C43.3699 33.6719 43.4045 34.3296 43.4391 34.7797C43.4737 35.2297 43.5084 35.5932 43.543 35.8702C43.5776 36.1298 43.6036 36.3202 43.6209 36.4414L43.6728 36.7011C43.6728 36.7011 43.3872 37.2809 42.816 37.454C42.2447 37.6444 41.7255 37.7396 41.2581 37.7396C40.808 37.7396 40.583 37.6358 40.583 37.4281C40.583 37.3242 40.609 37.1944 40.6609 37.0386C40.7128 36.8828 40.7734 36.6838 40.8427 36.4414C41.0158 35.8356 41.1369 34.7364 41.2062 33.1439C41.2754 31.5341 41.31 29.7079 41.31 27.6654C41.31 25.6055 41.2841 24.1082 41.2321 23.1735C41.1456 21.6502 40.9898 20.629 40.7648 20.1097C40.7128 20.0577 40.6869 19.9885 40.6869 19.9019C40.6869 19.625 41.1456 19.3567 42.063 19.097C42.9804 18.8374 43.6901 18.7076 44.1921 18.7076C44.7114 18.7076 45.0143 18.7162 45.1009 18.7335C45.3432 18.7162 45.4903 18.8547 45.5423 19.149C46.0442 20.9665 46.7453 23.1042 47.6454 25.5622C48.5628 28.0202 49.3764 29.8983 50.0861 31.1966C50.1726 31.2831 50.2419 31.3264 50.2938 31.3264C50.3803 31.3264 50.4236 30.6167 50.4236 29.1973Z" fill="#B5B090"/>
<path d="M56.5081 30.7292L56.5341 31.3783C56.5341 31.4822 56.6033 31.5341 56.7418 31.5341C57.2957 31.4822 57.7804 31.3437 58.1958 31.1187C58.6112 30.8763 58.9228 30.608 59.1305 30.3138C59.546 29.6733 59.771 29.1194 59.8056 28.652L59.8316 28.3404C59.8316 27.4057 59.4594 26.9384 58.7151 26.9384C58.1612 26.9384 57.7111 27.1807 57.3649 27.6654C56.7937 28.427 56.5081 29.4483 56.5081 30.7292ZM62.1684 34.1825C62.1684 34.8403 62.0299 35.4201 61.753 35.9221C61.4933 36.4068 61.1904 36.7703 60.8442 37.0126C60.5153 37.2377 60.1258 37.4194 59.6758 37.5579C59.1046 37.731 58.5593 37.8175 58.04 37.8175C56.586 37.8175 55.5128 37.2723 54.8204 36.1818C54.128 35.0913 53.7818 33.7065 53.7818 32.0274C53.7818 30.3311 54.2059 28.8251 55.0541 27.5096C55.9196 26.194 57.2091 25.5363 58.9228 25.5363C60.4807 25.5363 61.5366 26.0815 62.0905 27.172C62.3155 27.5875 62.428 27.9856 62.428 28.3664C62.428 28.7299 62.4107 29.0242 62.3761 29.2492C62.3415 29.4569 62.2203 29.7772 62.0126 30.2099C61.8049 30.6426 61.5279 31.0321 61.1817 31.3783C60.8355 31.7245 60.2903 32.0534 59.546 32.365C58.8016 32.6765 57.9275 32.8843 56.9235 32.9881C56.7851 32.9881 56.7158 33.0487 56.7158 33.1699C56.7158 33.3257 56.7677 33.5593 56.8716 33.8709C56.9928 34.1652 57.1226 34.4162 57.2611 34.6239C57.6419 35.1086 58.2045 35.3509 58.9488 35.3509C59.6931 35.3509 60.3249 35.1086 60.8442 34.6239C61.1211 34.3642 61.3462 34.044 61.5193 33.6632C61.5885 33.5247 61.6751 33.4555 61.7789 33.4555C61.9001 33.4555 61.9953 33.5507 62.0645 33.7411C62.1338 33.9315 62.1684 34.0786 62.1684 34.1825Z" fill="#B5B090"/>
<path d="M71.4939 33.7671C71.4939 34.5114 71.3468 35.1605 71.0525 35.7144C70.7756 36.2683 70.4554 36.6751 70.0919 36.9347C69.7284 37.1944 69.2956 37.4021 68.7936 37.5579C68.1359 37.7656 67.5387 37.8695 67.0021 37.8695C65.8769 37.8695 64.9422 37.6531 64.1979 37.2204C63.4536 36.7703 63.0814 36.0606 63.0814 35.0913C63.0814 34.52 63.2372 34.0527 63.5488 33.6892C64.0334 33.1526 64.6133 32.8843 65.2884 32.8843C65.4961 32.8843 65.6 32.9795 65.6 33.1699C65.6 33.1872 65.5567 33.3257 65.4701 33.5853C65.4009 33.8276 65.3663 34.1392 65.3663 34.52C65.3663 34.9008 65.5134 35.2384 65.8077 35.5326C66.1193 35.8269 66.4914 35.974 66.9242 35.974C67.3569 35.974 67.7031 35.9048 67.9628 35.7663C68.2224 35.6105 68.4042 35.4201 68.508 35.1951C68.6638 34.8835 68.7417 34.5893 68.7417 34.3123C68.7417 33.8103 68.4907 33.3776 67.9887 33.0141C67.4867 32.6506 66.9328 32.365 66.327 32.1572C65.7211 31.9495 65.1672 31.6033 64.6652 31.1187C64.1633 30.634 63.9123 30.0281 63.9123 29.3011C63.9123 28.0548 64.3017 27.1201 65.0807 26.497C65.8769 25.8738 66.9501 25.5622 68.3003 25.5622C68.8888 25.5622 69.5033 25.6488 70.1438 25.8219C70.8016 25.9777 71.1304 26.2546 71.1304 26.6527C71.1304 27.0336 71.0612 27.3884 70.9227 27.7173C70.8016 28.0462 70.6458 28.2106 70.4554 28.2106C70.3515 28.2106 70.2823 28.176 70.2476 28.1068C70.213 28.0202 70.1524 27.925 70.0659 27.8212C69.9793 27.7173 69.7716 27.5875 69.4427 27.4317C69.1139 27.2586 68.8282 27.172 68.5859 27.172C68.3609 27.172 68.2051 27.1807 68.1185 27.198C68.0493 27.198 67.9195 27.224 67.7291 27.2759C67.5387 27.3105 67.3656 27.3711 67.2098 27.4577C66.8117 27.6827 66.6126 28.0116 66.6126 28.4443C66.6126 28.7213 66.6732 28.929 66.7943 29.0675C66.9155 29.1886 67.0107 29.2838 67.08 29.3531C67.1492 29.4223 67.2704 29.5089 67.4435 29.6127C67.6166 29.6993 67.7377 29.7598 67.807 29.7945C67.8762 29.8291 68.032 29.907 68.2743 30.0281C68.5167 30.132 68.6725 30.2012 68.7417 30.2359C70.5765 31.1014 71.4939 32.2784 71.4939 33.7671Z" fill="#B5B090"/>
<path d="M72.1366 27.198L72.2145 26.1594C72.2318 26.0036 72.3529 25.9257 72.578 25.9257H73.4867L73.3829 23.8486V23.7447C73.3829 23.3466 73.6858 22.9658 74.2916 22.6023C74.8975 22.2388 75.4514 22.057 75.9534 22.057C76.1092 22.057 76.1871 22.1262 76.1871 22.2647V22.2907C76.1178 22.7581 76.0486 23.9611 75.9793 25.8998C76.741 25.8998 77.2256 25.8825 77.4334 25.8478C77.6411 25.8132 77.7536 25.7959 77.7709 25.7959C77.8921 25.7959 77.9526 25.8998 77.9526 26.1075C77.9526 26.3152 77.8574 26.5835 77.667 26.9124C77.4766 27.224 77.2689 27.3884 77.0439 27.4057H75.9534C75.9361 27.9943 75.9274 28.9896 75.9274 30.3917C75.9274 31.7764 75.9361 32.9189 75.9534 33.819C75.988 34.7191 76.0226 35.4028 76.0572 35.8702C76.0918 36.3202 76.1265 36.6837 76.1611 36.9607C76.213 37.2377 76.2476 37.4367 76.2649 37.5579C76.2996 37.6791 76.3169 37.757 76.3169 37.7916C76.3169 37.9647 76.2044 38.0599 75.9793 38.0772C75.3043 38.0772 74.6292 37.982 73.9541 37.7916C73.2963 37.6012 72.9674 37.2723 72.9674 36.8049C73.3309 33.8969 73.5127 30.7725 73.5127 27.4317C73.0453 27.4317 72.6905 27.449 72.4481 27.4836H72.4222C72.2664 27.4836 72.1712 27.3884 72.1366 27.198Z" fill="#B5B090"/>
<path d="M2.06712 42.6637C1.91627 41.9333 2.3882 41.2196 3.1193 41.0724L35.9976 34.4527C36.6331 34.3248 37.2525 34.7343 37.3837 35.3692V35.3692C37.5148 36.004 37.1083 36.6255 36.4741 36.7598L3.66365 43.7079C2.93406 43.8624 2.21798 43.394 2.06712 42.6637V42.6637Z" fill="#B5B090"/>
<path d="M34.5072 35.0839C34.6958 34.3797 35.4257 33.9675 36.1261 34.1694L43.0275 36.1586C43.5886 36.3203 43.9048 36.914 43.7258 37.4699V37.4699C43.5636 37.9738 43.0473 38.274 42.5292 38.1657L35.4988 36.6961C34.7668 36.543 34.3136 35.8063 34.5072 35.0839V35.0839Z" fill="#B5B090"/>
<path fill-rule="evenodd" clip-rule="evenodd" d="M30.6761 35.5241L24.0645 39.3413L24.0884 39.3826L36.1411 36.8303L42.4537 38.1499L40.96 35.5626L36.1261 34.1694C35.557 34.0053 34.9685 34.2467 34.6666 34.7207L30.6761 35.5241Z" fill="black" fill-opacity="0.1"/>
<path d="M24.6029 38.2686C23.8868 38.0768 23.4695 37.3326 23.6792 36.6215L25.006 32.1228C25.1904 31.4975 25.8398 31.1333 26.4696 31.302V31.302C27.0993 31.4707 27.4797 32.1109 27.3267 32.7447L26.2264 37.3041C26.0525 38.0247 25.319 38.4605 24.6029 38.2686V38.2686Z" fill="#B5B090"/>
<path fill-rule="evenodd" clip-rule="evenodd" d="M3.08442 41.0241C2.35331 41.1713 1.88139 41.885 2.03224 42.6154C2.18309 43.3458 2.89917 43.8141 3.62877 43.6596L9.68962 42.3761C10.1116 42.2868 10.4135 41.9142 10.4135 41.4829V41.4829C10.4135 40.9786 10.0047 40.5698 9.50045 40.5698H5.8008C5.49506 40.5698 5.19008 40.6002 4.89035 40.6605L3.08442 41.0241Z" fill="black" fill-opacity="0.1"/>
<path fill-rule="evenodd" clip-rule="evenodd" d="M38.916 31.3189C38.5835 30.6517 37.7715 30.3826 37.1063 30.7192L17.3598 40.7144C17.341 40.7115 17.322 40.709 17.3028 40.7069L1.31317 38.9447C0.667964 38.8736 0.085899 39.3355 0.0085468 39.98C-0.0688054 40.6245 0.387429 41.211 1.03114 41.2946L13.2101 42.8762L9.4519 48.1066C9.072 48.6353 9.18493 49.3708 9.70594 49.7611C10.2269 50.1515 10.9645 50.0533 11.3653 49.5402L15.3618 44.423C15.3803 44.3994 15.3978 44.3753 15.4144 44.3509L38.3049 33.1248C38.9743 32.7965 39.2485 31.9861 38.916 31.3189Z" fill="#E3DCB4"/>
</svg>
