<svg width="219" height="69" viewBox="0 0 219 69" fill="none" xmlns="http://www.w3.org/2000/svg">
<path fill-rule="evenodd" clip-rule="evenodd" d="M30.664 8.46151e-05L30.7595 0C39.9749 0 46.492 2.36194 46.492 7.62791C46.492 9.8351 45.6821 12.2021 43.9222 14.2073C47.8767 17.7054 49.9245 22.9424 49.9245 28.7953L49.9243 28.8798L49.9245 28.986C49.9245 29.8467 49.8675 30.6813 49.7571 31.4883C57.5445 33.1122 61 36.6016 61 43.6853C61 50.9396 56.4599 59.09 46.0405 63.1478C44.6223 64.1956 42.8286 65.2222 40.8021 66.0948C35.4579 68.396 30.4481 68.7852 29.3408 67.0339C30.8733 66.7946 32.8025 66.2936 34.9466 65.5677C33.5847 65.6768 32.1641 65.7336 30.6837 65.7336L30.4999 65.7333V65.7329L30.3163 65.7332C8.88363 65.7332 0 53.8324 0 43.685C0 40.1883 0.841946 37.5675 2.63123 35.6145L1.58511 35.8351C3.08745 33.3687 5.97271 31.7257 11.4609 30.4622C11.4229 29.9793 11.4036 29.4871 11.4036 28.9862L11.4038 28.8849L11.4036 28.7955C11.4036 22.9426 13.4515 17.7055 17.406 14.2074C15.6461 12.2022 14.8361 9.83516 14.8361 7.62793C14.8361 2.36196 21.3532 2.07034e-05 30.5687 2.07034e-05L30.664 0.000105102V5.14902L30.5687 5.14884C26.3798 5.14884 23.4175 6.22244 23.4175 8.61607C23.4175 9.33546 23.6068 10.0922 24.0088 10.7989C25.9496 10.2256 28.1063 9.91644 30.4734 9.91644C30.5371 9.91644 30.6006 9.91667 30.664 9.91712V13.8166V28.469L30.664 28.469V9.9169C30.7275 9.91646 30.791 9.91623 30.8548 9.91623C33.2219 9.91623 35.3786 10.2254 37.3194 10.7987C37.7214 10.0921 37.9106 9.33538 37.9106 8.61605C37.9106 6.22242 34.9483 5.14882 30.7595 5.14882L30.664 5.149V8.46151e-05ZM30.664 30.2066V29.7035L30.664 29.7035V30.2066H30.664ZM54.732 38.1986C52.5699 41.1102 42.59 43.3113 30.6051 43.3113C24.4571 43.3113 18.8366 42.7321 14.5285 41.7749C15.561 42.0838 16.6479 42.3844 17.7734 42.6699C21.9275 43.7235 25.7177 44.3442 28.2826 44.4613C27.5659 45.9674 22.6375 46.0567 16.9975 44.6263C11.217 43.1602 6.85439 40.6469 7.16985 38.9799C7.26628 39.0301 7.36559 39.0807 7.46775 39.1316C7.03405 38.8202 6.69329 38.4974 6.45404 38.1655C12.6418 39.2775 21.2136 39.9659 30.686 39.9659C40.0638 39.9659 48.559 39.2911 54.732 38.1986Z" fill="#3B8DBF"/>
<path fill-rule="evenodd" clip-rule="evenodd" d="M30.664 8.46151e-05L30.7595 0C39.9749 0 46.492 2.36194 46.492 7.62791C46.492 9.8351 45.6821 12.2021 43.9222 14.2073C47.8767 17.7054 49.9245 22.9424 49.9245 28.7953L49.9243 28.8798L49.9245 28.986C49.9245 29.8467 49.8675 30.6813 49.7571 31.4883C57.5445 33.1122 61 36.6016 61 43.6853C61 50.9396 56.4599 59.09 46.0405 63.1478C44.6223 64.1956 42.8286 65.2222 40.8021 66.0948C35.4579 68.396 30.4481 68.7852 29.3408 67.0339C30.8733 66.7946 32.8025 66.2936 34.9466 65.5677C33.5847 65.6768 32.1641 65.7336 30.6837 65.7336L30.4999 65.7333V65.7329L30.3163 65.7332C8.88363 65.7332 0 53.8324 0 43.685C0 40.1883 0.841946 37.5675 2.63123 35.6145L1.58511 35.8351C3.08745 33.3687 5.97271 31.7257 11.4609 30.4622C11.4229 29.9793 11.4036 29.4871 11.4036 28.9862L11.4038 28.8849L11.4036 28.7955C11.4036 22.9426 13.4515 17.7055 17.406 14.2074C15.6461 12.2022 14.8361 9.83516 14.8361 7.62793C14.8361 2.36196 21.3532 2.07034e-05 30.5687 2.07034e-05L30.664 0.000105102V5.14902L30.5687 5.14884C26.3798 5.14884 23.4175 6.22244 23.4175 8.61607C23.4175 9.33546 23.6068 10.0922 24.0088 10.7989C25.9496 10.2256 28.1063 9.91644 30.4734 9.91644C30.5371 9.91644 30.6006 9.91667 30.664 9.91712V13.8166V28.469L30.664 28.469V9.9169C30.7275 9.91646 30.791 9.91623 30.8548 9.91623C33.2219 9.91623 35.3786 10.2254 37.3194 10.7987C37.7214 10.0921 37.9106 9.33538 37.9106 8.61605C37.9106 6.22242 34.9483 5.14882 30.7595 5.14882L30.664 5.149V8.46151e-05ZM30.664 30.2066V29.7035L30.664 29.7035V30.2066H30.664ZM54.732 38.1986C52.5699 41.1102 42.59 43.3113 30.6051 43.3113C24.4571 43.3113 18.8366 42.7321 14.5285 41.7749C15.561 42.0838 16.6479 42.3844 17.7734 42.6699C21.9275 43.7235 25.7177 44.3442 28.2826 44.4613C27.5659 45.9674 22.6375 46.0567 16.9975 44.6263C11.217 43.1602 6.85439 40.6469 7.16985 38.9799C7.26628 39.0301 7.36559 39.0807 7.46775 39.1316C7.03405 38.8202 6.69329 38.4974 6.45404 38.1655C12.6418 39.2775 21.2136 39.9659 30.686 39.9659C40.0638 39.9659 48.559 39.2911 54.732 38.1986Z" fill="url(#paint0_linear)"/>
<path fill-rule="evenodd" clip-rule="evenodd" d="M20.5218 16.8574C17.454 19.6192 15.8659 23.7218 15.8659 28.302C15.8659 31.5154 16.8724 34.269 18.5874 36.4382C19.6279 36.5341 20.7078 36.6183 21.8216 36.6898C20.2701 33.2082 19.3895 29.2232 19.3895 24.989C19.3895 22.1398 19.7883 19.4035 20.5218 16.8574Z" fill="white"/>
<path d="M87.3 18.6C85.4333 18.6 83.9333 19.2167 82.8 20.45C81.6667 21.6833 81.1 23.3167 81.1 25.35V26.7H86.2C86.9 26.7 87.4667 26.9 87.9 27.3C88.3333 27.7 88.55 28.2333 88.55 28.9C88.55 29.5 88.3333 30 87.9 30.4C87.4667 30.8 86.9 31 86.2 31H81.1V50.5C81.1 51.2667 80.8667 51.8833 80.4 52.35C79.9333 52.8167 79.2833 53.05 78.45 53.05C77.7833 53.05 77.2 52.8167 76.7 52.35C76.2333 51.8833 76 51.2667 76 50.5V31H73.85C73.15 31 72.5833 30.8 72.15 30.4C71.7167 30 71.5 29.5 71.5 28.9C71.5 28.2333 71.7167 27.7 72.15 27.3C72.5833 26.9 73.15 26.7 73.85 26.7H76V25.85C76 23.4833 76.4667 21.4167 77.4 19.65C78.3667 17.85 79.7 16.4667 81.4 15.5C83.1333 14.5 85.1 14 87.3 14C88.0333 14 88.6333 14.2167 89.1 14.65C89.6 15.0833 89.85 15.6333 89.85 16.3C89.85 16.9667 89.6 17.5167 89.1 17.95C88.6333 18.3833 88.0333 18.6 87.3 18.6Z" fill="#828282"/>
<path d="M93.3594 28.25C93.3594 27.4833 93.5927 26.8667 94.0594 26.4C94.5594 25.9333 95.176 25.7 95.9094 25.7C96.676 25.7 97.2927 25.9333 97.7594 26.4C98.226 26.8667 98.4594 27.4833 98.4594 28.25V50.5C98.4594 51.2333 98.226 51.85 97.7594 52.35C97.2927 52.8167 96.676 53.05 95.9094 53.05C95.176 53.05 94.5594 52.8167 94.0594 52.35C93.5927 51.85 93.3594 51.2333 93.3594 50.5V28.25ZM95.9094 14.65C96.8094 14.65 97.576 14.9833 98.2094 15.65C98.876 16.2833 99.2094 17.05 99.2094 17.95C99.2094 18.85 98.876 19.6333 98.2094 20.3C97.576 20.9333 96.8094 21.25 95.9094 21.25C95.0094 21.25 94.226 20.9333 93.5594 20.3C92.926 19.6333 92.6094 18.85 92.6094 17.95C92.6094 17.05 92.926 16.2833 93.5594 15.65C94.226 14.9833 95.0094 14.65 95.9094 14.65Z" fill="#828282"/>
<path d="M116.597 48.05C117.197 48.05 117.697 48.2833 118.097 48.75C118.531 49.2167 118.747 49.8167 118.747 50.55C118.747 51.2833 118.464 51.8833 117.897 52.35C117.364 52.8167 116.664 53.05 115.797 53.05H114.897C113.264 53.05 111.764 52.6333 110.397 51.8C109.064 50.9333 108.014 49.7667 107.247 48.3C106.481 46.8333 106.097 45.1833 106.097 43.35V31H103.797C103.097 31 102.531 30.8 102.097 30.4C101.664 30 101.447 29.5 101.447 28.9C101.447 28.2333 101.664 27.7 102.097 27.3C102.531 26.9 103.097 26.7 103.797 26.7H106.097V19.5C106.097 18.7667 106.331 18.1667 106.797 17.7C107.264 17.2333 107.864 17 108.597 17C109.331 17 109.931 17.2333 110.397 17.7C110.864 18.1667 111.097 18.7667 111.097 19.5V26.7H115.347C116.047 26.7 116.614 26.9 117.047 27.3C117.481 27.7 117.697 28.2333 117.697 28.9C117.697 29.5 117.481 30 117.047 30.4C116.614 30.8 116.047 31 115.347 31H111.097V43.35C111.097 44.6833 111.464 45.8 112.197 46.7C112.931 47.6 113.831 48.05 114.897 48.05H116.597Z" fill="#828282"/>
<path d="M134.616 25.45C136.916 25.45 138.982 25.95 140.816 26.95C142.649 27.95 144.082 29.4167 145.116 31.35C146.149 33.25 146.666 35.55 146.666 38.25V50.55C146.666 51.2833 146.416 51.9 145.916 52.4C145.449 52.8667 144.849 53.1 144.116 53.1C143.382 53.1 142.766 52.8667 142.266 52.4C141.799 51.9 141.566 51.2833 141.566 50.55V38.25C141.566 35.55 140.832 33.5167 139.366 32.15C137.932 30.75 136.016 30.05 133.616 30.05C132.216 30.05 130.932 30.3333 129.766 30.9C128.632 31.4667 127.732 32.2333 127.066 33.2C126.432 34.1667 126.116 35.25 126.116 36.45V50.55C126.116 51.2833 125.882 51.9 125.416 52.4C124.949 52.8667 124.332 53.1 123.566 53.1C122.832 53.1 122.216 52.8667 121.716 52.4C121.249 51.9 121.016 51.2833 121.016 50.55V39.4V28.25C121.016 27.4833 121.249 26.8667 121.716 26.4C122.216 25.9333 122.832 25.7 123.566 25.7C124.332 25.7 124.949 25.9333 125.416 26.4C125.882 26.8667 126.116 27.4833 126.116 28.25V28.8C127.182 27.7333 128.449 26.9167 129.916 26.35C131.382 25.75 132.949 25.45 134.616 25.45Z" fill="#828282"/>
<path d="M175.648 38.95C175.648 39.5833 175.431 40.1167 174.998 40.55C174.564 40.95 174.014 41.15 173.348 41.15H154.348C154.714 43.4833 155.764 45.3667 157.498 46.8C159.264 48.2333 161.414 48.95 163.948 48.95C164.948 48.95 165.981 48.7667 167.048 48.4C168.148 48.0333 169.048 47.5833 169.748 47.05C170.214 46.6833 170.764 46.5 171.398 46.5C172.031 46.5 172.531 46.6667 172.898 47C173.498 47.5 173.798 48.0667 173.798 48.7C173.798 49.3 173.531 49.8 172.998 50.2C171.864 51.1 170.448 51.8333 168.748 52.4C167.081 52.9667 165.481 53.25 163.948 53.25C161.214 53.25 158.764 52.6667 156.598 51.5C154.431 50.3 152.731 48.65 151.498 46.55C150.298 44.45 149.698 42.0667 149.698 39.4C149.698 36.7333 150.264 34.35 151.398 32.25C152.564 30.1167 154.164 28.4667 156.198 27.3C158.264 26.1 160.598 25.5 163.198 25.5C165.764 25.5 167.981 26.0667 169.848 27.2C171.714 28.3333 173.148 29.9167 174.148 31.95C175.148 33.9833 175.648 36.3167 175.648 38.95ZM163.198 29.8C160.764 29.8 158.781 30.4667 157.248 31.8C155.748 33.1333 154.798 34.9167 154.398 37.15H171.048C170.748 34.9167 169.914 33.1333 168.548 31.8C167.181 30.4667 165.398 29.8 163.198 29.8Z" fill="#828282"/>
<path d="M188.752 25.5C190.919 25.5 192.852 25.85 194.552 26.55C196.286 27.25 197.652 28.2167 198.652 29.45C199.086 29.9833 199.302 30.5167 199.302 31.05C199.302 31.6167 199.019 32.1333 198.452 32.6C198.086 32.8667 197.619 33 197.052 33C196.186 33 195.402 32.6833 194.702 32.05C193.869 31.2833 192.986 30.75 192.052 30.45C191.119 30.1167 189.986 29.95 188.652 29.95C187.119 29.95 185.852 30.2167 184.852 30.75C183.886 31.25 183.402 31.9667 183.402 32.9C183.402 33.5667 183.569 34.1333 183.902 34.6C184.236 35.0333 184.869 35.45 185.802 35.85C186.736 36.2167 188.086 36.5833 189.852 36.95C193.486 37.6833 196.052 38.7 197.552 40C199.086 41.3 199.852 42.9833 199.852 45.05C199.852 46.5833 199.436 47.9833 198.602 49.25C197.769 50.4833 196.536 51.4667 194.902 52.2C193.302 52.9 191.369 53.25 189.102 53.25C186.836 53.25 184.702 52.9 182.702 52.2C180.702 51.5 179.136 50.5833 178.002 49.45C177.569 49.0167 177.352 48.5 177.352 47.9C177.352 47.1 177.686 46.45 178.352 45.95C178.986 45.4833 179.569 45.25 180.102 45.25C180.769 45.25 181.402 45.55 182.002 46.15C182.636 46.85 183.586 47.4667 184.852 48C186.119 48.5 187.469 48.75 188.902 48.75C190.802 48.75 192.269 48.4333 193.302 47.8C194.369 47.1667 194.902 46.3167 194.902 45.25C194.902 44.2167 194.386 43.3667 193.352 42.7C192.319 42 190.569 41.4167 188.102 40.95C181.702 39.7167 178.502 37.0833 178.502 33.05C178.502 31.4167 178.986 30.0333 179.952 28.9C180.919 27.7667 182.186 26.9167 183.752 26.35C185.319 25.7833 186.986 25.5 188.752 25.5Z" fill="#828282"/>
<path d="M215.951 48.05C216.551 48.05 217.051 48.2833 217.451 48.75C217.884 49.2167 218.101 49.8167 218.101 50.55C218.101 51.2833 217.817 51.8833 217.251 52.35C216.717 52.8167 216.017 53.05 215.151 53.05H214.251C212.617 53.05 211.117 52.6333 209.751 51.8C208.417 50.9333 207.367 49.7667 206.601 48.3C205.834 46.8333 205.451 45.1833 205.451 43.35V31H203.151C202.451 31 201.884 30.8 201.451 30.4C201.017 30 200.801 29.5 200.801 28.9C200.801 28.2333 201.017 27.7 201.451 27.3C201.884 26.9 202.451 26.7 203.151 26.7H205.451V19.5C205.451 18.7667 205.684 18.1667 206.151 17.7C206.617 17.2333 207.217 17 207.951 17C208.684 17 209.284 17.2333 209.751 17.7C210.217 18.1667 210.451 18.7667 210.451 19.5V26.7H214.701C215.401 26.7 215.967 26.9 216.401 27.3C216.834 27.7 217.051 28.2333 217.051 28.9C217.051 29.5 216.834 30 216.401 30.4C215.967 30.8 215.401 31 214.701 31H210.451V43.35C210.451 44.6833 210.817 45.8 211.551 46.7C212.284 47.6 213.184 48.05 214.251 48.05H215.951Z" fill="#828282"/>
<defs>
<linearGradient id="paint0_linear" x1="30.5" y1="0" x2="30.5" y2="68.1247" gradientUnits="userSpaceOnUse">
<stop stop-color="#77BDD9"/>
<stop offset="1" stop-color="white" stop-opacity="0"/>
</linearGradient>
</defs>
</svg>
